<svg width="408" height="410" viewBox="0 0 408 410" fill="none" xmlns="http://www.w3.org/2000/svg">
<g filter="url(#filter0_d)">
<path d="M283.333 169.956C283.615 168.109 284.855 167.372 286.2 166.556C287.386 165.838 288.525 165.042 289.6 164.335C289.248 162.812 288.053 162.975 287.258 162.602C285.982 162.002 284.358 161.884 283.367 161.013C282.306 160.082 281.802 158.513 281.067 157.22C281.011 157.12 281.06 156.962 281.06 156.82L282.293 155.085C281.335 154.458 280.502 153.901 279.658 153.361C278.502 152.62 279.422 151.273 278.711 150.283L277.125 149.883C277.746 148.411 278.248 147.049 278.897 145.761C279.153 145.146 279.628 144.647 280.229 144.361C281.895 143.927 282.408 142.781 282.751 141.288C283.251 139.109 282.124 137.561 280.065 138.252C277.348 139.164 275.733 138.315 274.494 135.988C274.121 135.421 273.712 134.88 273.268 134.367C273.077 134.102 272.789 133.773 272.821 133.505C272.993 132.087 272.208 131.405 270.934 131.078C271.504 130.363 272.227 129.823 272.434 129.131C273.027 127.263 273.445 125.345 273.683 123.4C273.895 121.265 273.722 119.094 273.744 116.94C273.798 116.194 273.63 115.449 273.259 114.799C272.889 114.149 272.333 113.624 271.664 113.291C270.764 112.831 269.958 112.207 269.286 111.453C269.055 111.08 268.718 110.785 268.318 110.606C267.918 110.426 267.474 110.37 267.042 110.445C266.532 110.531 266.008 110.469 265.531 110.267C265.055 110.065 264.646 109.731 264.353 109.305C266.742 108.015 268.015 105.239 271.068 105.105C271.204 105.097 271.333 105.039 271.429 104.942C272.643 103.775 273.719 102.472 274.636 101.059C274.994 100.136 275.625 99.3457 276.446 98.7928C276.91 98.5725 277.293 98.2107 277.538 97.7594C277.784 97.308 277.88 96.7903 277.813 96.2808C277.778 95.7406 277.861 95.199 278.057 94.6944C278.254 94.1898 278.558 93.7342 278.949 93.3597C280.141 91.9887 281.506 90.6837 281.949 88.8267C282.322 87.2587 282.491 85.6339 284.049 84.6539C284.264 84.5189 284.315 84.0458 284.349 83.7188C284.566 82.5168 285.104 81.3959 285.907 80.4757C286.382 79.9122 286.662 79.2109 286.707 78.4757C286.545 76.7465 286.775 75.0032 287.382 73.3758C287.531 72.8529 287.591 72.3086 287.56 71.7657C287.598 71.3589 287.555 70.9488 287.433 70.5587C287.312 70.1686 287.115 69.8061 286.853 69.4925C286.591 69.1789 286.27 68.9201 285.908 68.731C285.546 68.5419 285.15 68.4262 284.743 68.3907C284.019 68.2544 283.312 68.0351 282.638 67.7369C281.357 67.1579 280.157 66.3799 278.847 65.8839C275.417 64.5839 271.947 63.7039 268.209 64.6969C265.909 65.3079 264.134 66.7829 264.29 68.9139C264.394 69.5865 264.247 70.2737 263.876 70.8446C263.506 71.4155 262.938 71.8301 262.281 72.0089C260.688 72.6067 259.302 73.6539 258.292 75.0238C257.67 75.8768 256.849 76.1178 255.527 75.4808C256.322 74.8808 256.942 74.4327 257.549 73.9627C258.293 73.5141 258.968 72.9613 259.555 72.3209C260.468 71.0214 261.314 69.6756 262.088 68.2889C263.059 66.2727 263.807 64.156 264.317 61.9769C264.691 60.7089 264.34 60.2497 263.034 59.9847C260.711 59.5147 258.381 59.0816 256.043 58.6849C255.523 58.547 254.972 58.582 254.473 58.7847C253.907 59.0861 253.284 59.2661 252.644 59.3133C252.005 59.3605 251.362 59.2737 250.758 59.0587C249.568 58.7997 248.37 58.5697 247.167 58.3807C245.025 58.0427 244.956 58.0188 244.788 55.8858C244.712 54.8706 244.7 53.8515 244.752 52.8348C244.771 52.3672 244.915 51.9132 245.17 51.5208C246.747 49.3578 248.057 47.0117 249.07 44.5338C249.311 43.9805 249.43 43.3814 249.417 42.7779C249.403 42.1744 249.259 41.5809 248.994 41.0387C248.729 40.4964 248.349 40.0182 247.88 39.6375C247.412 39.2568 246.866 38.9826 246.281 38.8338C245.409 38.7226 244.545 38.5596 243.692 38.3458C243.065 38.1592 242.524 37.7605 242.159 37.2178C240.237 33.6276 238.812 29.7922 237.925 25.8177C237.559 23.753 237.298 21.6709 237.143 19.5797C236.853 16.4727 235.203 14.2187 232.628 13.4217C231.774 13.1577 231.068 13.1797 230.866 14.1217C230.529 15.1514 229.848 16.034 228.938 16.6217C228.343 17.1707 227.803 17.7759 227.324 18.4288C226.054 20.0958 224.819 21.7888 223.581 23.4808C223.384 23.754 223.217 24.047 223.081 24.3548C222.081 26.5778 220.959 28.7547 220.139 31.0467C219.479 32.8907 217.839 33.1787 216.439 33.8587C216.182 33.9322 215.912 33.9453 215.649 33.897C215.386 33.8488 215.138 33.7407 214.924 33.5809C214.539 33.3069 214.101 33.1153 213.638 33.0186C213.176 32.9219 212.698 32.9221 212.235 33.0189C211.501 33.1393 210.75 33.1204 210.023 32.9637C209.379 32.7388 208.685 32.6967 208.019 32.8421C207.352 32.9876 206.739 33.3149 206.247 33.7877C204.822 34.9467 203.532 34.5707 202.156 33.7147C200.722 32.8227 199.233 32.0147 197.766 31.1817C196.971 30.7362 196.089 30.4687 195.181 30.3975C194.273 30.3264 193.36 30.4535 192.506 30.7699C190.88 31.1824 189.201 31.3425 187.527 31.2447C186.56 31.2257 185.671 30.9008 184.988 31.8858C184.25 32.9518 183.808 33.9857 184.588 35.2667C184.94 35.8417 185.546 36.4038 185.343 37.3858C184.756 37.1967 184.157 37.0441 183.551 36.9288C181.975 36.5619 180.355 36.4148 178.738 36.4918C177.145 36.7945 175.502 36.6868 173.962 36.1788C173.289 35.9151 172.544 35.8993 171.86 36.1341C171.177 36.369 170.599 36.8391 170.23 37.4608C169.925 37.9857 169.493 38.4262 168.975 38.7423C168.457 39.0583 167.867 39.24 167.261 39.2708C166.533 39.4185 165.823 39.644 165.144 39.9437C164.448 40.1896 163.725 40.3495 162.99 40.4198C160.895 40.4748 159.251 41.0737 158.883 43.4857C157.465 43.4037 156.143 44.3158 154.845 43.4918C153.105 42.4597 151.434 41.3136 149.845 40.0609C149.148 39.5692 148.6 38.8953 148.26 38.1129C147.92 37.3305 147.802 36.4698 147.919 35.6248C147.964 35.2546 147.905 34.8793 147.747 34.5411C147.59 34.2029 147.342 33.9152 147.03 33.7108C146.522 33.2776 146.152 32.7041 145.968 32.0618C145.361 29.9684 145.442 27.7352 146.201 25.6917C147.028 23.6977 147.927 21.7318 148.87 19.7918C149.599 18.2918 149.89 16.8528 148.883 15.3678C148.504 14.8088 147.921 14.2349 147.873 13.6329C147.748 12.0739 146.754 11.6007 145.502 11.2767C145.12 11.1767 144.755 11.0167 144.228 10.8287C144.528 10.1437 144.811 9.54579 145.054 8.92879C145.293 8.38478 145.387 7.78842 145.328 7.19734C145.27 6.60626 145.059 6.04048 144.719 5.55403C144.378 5.06759 143.917 4.67696 143.382 4.42C142.846 4.16304 142.254 4.04826 141.661 4.08675C140.58 4.11075 139.495 4.08679 138.417 4.01179C136.48 3.87779 136.409 3.94566 136.947 5.74666C137.221 6.66466 137.513 7.62573 136.714 8.42073C135.808 9.32073 134.853 10.1779 133.873 10.9989C133.581 11.1493 133.251 11.2106 132.925 11.1749C132.04 11.1511 131.159 11.3094 130.337 11.6402C129.516 11.971 128.771 12.4671 128.149 13.0977C126.376 14.9067 124.001 16.0077 121.549 15.2877C119.313 14.6317 117.84 16.1108 115.992 16.4378C115.674 16.4938 115.424 17.4379 115.311 17.9979C115.193 18.5859 115.333 19.2218 115.258 19.8228C115.122 20.3527 114.937 20.8687 114.704 21.3638C113.524 20.2278 112.525 19.3427 111.619 18.3717C111.287 17.896 110.787 17.5641 110.219 17.4429C109.652 17.3217 109.06 17.4203 108.562 17.7188C108.089 17.9489 107.57 18.0666 107.044 18.0628C105.901 18.0628 104.757 17.9699 103.444 17.9049C102.655 16.0139 100.852 15.7098 98.993 15.4888C98.322 15.4098 97.657 15.2689 96.993 15.1339C95.467 14.8219 95.174 15.0558 95.172 16.5228C95.1525 17.0001 95.2459 17.4753 95.4447 17.9097C95.6435 18.3442 95.942 18.7255 96.316 19.0228C96.838 19.4418 97.4509 19.7458 97.9979 20.1378C99.5369 21.2378 100.85 22.4728 100.472 24.6378C100.094 26.8028 101.172 28.5637 102.042 30.3927C102.346 30.9746 102.531 31.6115 102.585 32.2657C102.646 34.0407 102.746 34.2097 104.558 34.2457C105.904 34.2727 107.251 34.2508 108.511 34.2508C108.617 34.406 108.685 34.5839 108.71 34.7701C108.734 34.9563 108.715 35.1457 108.653 35.3231C108.591 35.5004 108.488 35.6607 108.353 35.7911C108.217 35.9215 108.054 36.0184 107.874 36.0738C106.846 36.585 105.783 37.0244 104.694 37.3887C102.426 38.0527 102.019 38.4428 101.685 40.7838C101.529 41.8838 100.668 42.9298 99.7911 42.7398C98.5961 42.4808 97.891 43.1818 97.045 43.6868C96.356 44.0978 95.692 44.5578 94.972 44.9058C93.288 45.7198 91.4341 46.2367 90.5511 48.1927C90.3111 48.7237 89.5921 49.0387 89.1171 49.4337C86.9881 47.4397 85.4771 47.4407 83.5511 49.2967C83.4078 49.4419 83.28 49.6019 83.17 49.7738C82.9418 50.0632 82.6484 50.2944 82.3136 50.4486C81.9788 50.6027 81.6123 50.6754 81.244 50.6607C79.398 50.8747 78.3739 49.5927 77.2679 48.5667C75.9239 47.3197 74.696 45.9738 72.673 45.9788C72.6073 45.6674 72.5858 45.3483 72.609 45.0308C72.9653 44.0331 72.9998 42.9485 72.7071 41.9303C72.4145 40.912 71.8098 40.0112 70.9781 39.3548C70.6995 39.0581 70.453 38.7326 70.243 38.3839C68.726 36.4069 67.9361 36.0598 65.6431 38.1998C65.2889 38.6108 64.9701 39.051 64.6901 39.5157C64.3451 39.9717 63.977 40.4099 63.605 40.8739C61.075 38.1849 59.48 37.8918 58.583 41.3428C54.893 41.4808 51.1251 41.6989 47.3561 41.7169C46.2143 41.6927 45.0771 41.8687 43.9961 42.2369C43.5644 42.3341 43.1844 42.5886 42.9302 42.9508C42.676 43.3129 42.5658 43.7569 42.6211 44.1959C42.6761 45.4829 42.621 46.7748 42.634 48.0638C42.651 50.1928 42.714 50.2638 44.775 50.2818C46.246 50.2958 47.718 50.2818 49.062 50.2818C49.3391 50.7039 49.5203 51.1816 49.5929 51.6812C49.6655 52.1809 49.6276 52.6902 49.482 53.1737C47.808 51.7577 46.2 52.5297 44.524 53.1207C40.505 54.5387 40.918 53.9818 40.682 58.3048C40.51 61.4448 41.013 63.9048 44.235 65.1258C44.5905 65.2584 44.8959 65.4984 45.1086 65.8126C45.3214 66.1268 45.4309 66.4994 45.422 66.8787C45.5232 68.5145 46.1552 70.0726 47.222 71.3167C47.5206 71.6866 47.7279 72.1216 47.8273 72.5865C47.9266 73.0514 47.9153 73.5331 47.7941 73.9928C47.2821 76.0928 46.803 78.1928 46.447 80.3238C45.195 87.8028 44.01 95.2927 42.776 102.775C42.49 104.509 41.9371 104.675 40.5381 103.53C39.3881 102.59 35.9381 102.064 35.0701 103.121C34.4562 103.847 33.6991 104.439 32.8462 104.859C31.9933 105.279 31.0629 105.519 30.113 105.564C29.668 105.619 29.271 105.997 28.828 106.164C28.2723 106.409 27.6866 106.58 27.0861 106.671C25.0492 106.857 23.1063 107.614 21.4811 108.856C19.4201 110.369 17.414 111.956 15.313 113.414C14.4826 113.97 13.901 114.827 13.691 115.804C13.135 117.798 13.236 119.973 12 121.795C11.4712 122.549 11.1472 123.427 11.0596 124.343C10.9719 125.26 11.1236 126.183 11.5 127.024C12.073 128.489 11.8501 128.753 10.3621 129.453C6.49005 131.275 5.40505 133.166 5.86205 137.272C5.84845 137.41 5.81126 137.546 5.75207 137.672C4.80607 138.397 3.764 138.983 4.036 140.572C4.336 142.296 6.40101 142.995 6.32201 144.879C6.31401 145.056 6.656 145.305 6.885 145.426C7.36579 145.679 7.78196 146.039 8.10119 146.479C8.42042 146.919 8.63423 147.426 8.72607 147.962C8.83044 148.357 9.02788 148.721 9.30199 149.025C10.402 150.282 11.54 151.5 12.65 152.746C13.19 153.352 13.7351 153.959 14.2101 154.615C14.5129 154.943 14.6734 155.378 14.6567 155.825C14.6401 156.272 14.4476 156.694 14.1211 156.999C13.6436 157.653 13.2299 158.351 12.886 159.084C15.792 160.39 18.706 159.392 21.437 160.34C22.048 161.524 22.699 162.774 23.337 164.03C23.4913 164.372 23.7541 164.655 24.085 164.833C24.4158 165.011 24.7961 165.075 25.167 165.015C26.5105 164.863 27.861 164.782 29.213 164.772C31.965 164.844 34.443 164.372 36.265 162.045C36.7151 161.538 37.2275 161.09 37.79 160.712C38.0995 160.504 38.426 160.324 38.766 160.172C38.707 161.919 38.575 163.581 38.613 165.239C38.663 167.47 38.874 169.697 38.958 171.928C39.03 173.828 38.9941 173.828 40.9341 174.447C41.0676 174.47 41.1943 174.522 41.305 174.6C42.44 175.754 43.489 175.044 44.633 174.555C45.859 174.032 47.2111 173.279 48.4401 173.389C51.9611 173.704 55.6051 173.158 58.9921 174.651C59.319 174.705 59.6546 174.654 59.951 174.506C62.151 173.761 64.304 172.936 65.186 170.467C65.2884 170.283 65.4163 170.115 65.566 169.967C65.8968 169.916 66.2316 169.897 66.566 169.908C67.2961 170.054 68.054 169.962 68.7277 169.645C69.4013 169.328 69.955 168.802 70.307 168.146C70.975 167.123 71.9718 166.358 73.1329 165.978C74.3754 165.653 75.4709 164.916 76.2401 163.888C77.5811 162.251 79.4412 161.122 81.5121 160.688C82.4312 160.452 83.3622 160.264 84.3011 160.127C86.5481 159.816 88.801 159.556 91.337 159.24C91.612 160.983 92.2291 162.803 91.2291 164.64C90.954 165.227 90.8197 165.87 90.837 166.518C90.8544 167.166 91.0228 167.8 91.329 168.372C91.5281 168.765 91.6271 169.201 91.6173 169.642C91.6075 170.083 91.4894 170.515 91.2731 170.899C91.0066 171.375 90.8736 171.914 90.8878 172.46C90.9021 173.005 91.0632 173.537 91.3541 173.999C91.6541 174.606 91.9541 175.217 92.2721 175.815C93.7051 178.509 95.1461 181.126 98.0511 182.672C99.4476 183.211 100.61 184.224 101.335 185.534C101.466 185.84 101.974 186.023 102.343 186.182C103.929 186.986 105.759 187.164 107.47 186.682C108.162 186.394 108.928 186.335 109.656 186.514C110.384 186.693 111.035 187.101 111.514 187.677C111.768 188.088 112.164 188.391 112.627 188.529C113.089 188.667 113.587 188.63 114.024 188.425C114.824 188.025 115.316 188.54 115.759 189.066C117.633 191.295 120.191 192.076 122.927 192.439C123.221 192.457 123.507 192.543 123.762 192.69C124.017 192.836 124.235 193.04 124.399 193.285C125.185 194.482 126.305 195.421 127.621 195.985C128.937 196.549 130.39 196.713 131.799 196.457C132.776 196.196 133.795 196.133 134.796 196.27C135.798 196.407 136.762 196.743 137.633 197.257C137.981 197.478 138.398 197.569 138.807 197.512C139.215 197.454 139.591 197.253 139.865 196.945C140.575 196.329 141.351 195.785 142.027 195.135C142.472 194.754 142.814 194.269 143.022 193.722C143.39 192.053 144.289 190.549 145.586 189.437C145.88 189.16 146.124 188.835 146.309 188.476C148.401 185.068 148.853 181.658 146.293 178.255C146.253 178.201 146.228 178.135 146.188 178.081C145.979 177.882 145.813 177.642 145.702 177.376C145.591 177.11 145.536 176.824 145.541 176.535C145.546 176.247 145.612 175.963 145.733 175.701C145.854 175.439 146.028 175.206 146.244 175.015C146.668 174.563 146.93 173.982 146.987 173.365C147.045 172.748 146.895 172.129 146.562 171.606C146.289 171.067 145.962 170.554 145.718 170.123C144.542 170.103 143.375 169.907 142.256 169.543C141.294 169.06 140.226 168.825 139.15 168.859C137.114 168.868 135.077 168.874 133.041 168.852C132.512 168.818 131.985 168.753 131.463 168.66C131.249 166.166 131.771 163.736 130.623 161.515C130.541 161.356 130.623 161.115 130.623 160.915C130.617 158.823 130.607 156.731 130.605 154.64C130.605 152.187 130.226 149.698 131.297 147.317C131.482 147.255 131.673 147.213 131.867 147.19C138.101 147.042 144.334 146.899 150.567 146.761C153.55 146.695 156.534 146.655 159.517 146.582C161.086 146.543 161.446 146.173 161.701 144.537C161.724 143.793 161.872 143.059 162.138 142.364C162.816 140.951 162.967 139.342 162.565 137.828C162.439 137.245 162.466 136.64 162.645 136.071C163.13 135.046 163.672 134.049 164.269 133.085C164.716 133.541 165.292 133.877 165.483 134.365C166.442 136.808 167.342 139.275 168.183 141.765C168.675 143.217 168.391 144.965 169.626 146.126C170.797 147.231 172.077 148.226 173.335 149.234C174.229 149.952 175.244 150.534 176.068 151.322C177.619 152.763 179.598 153.658 181.705 153.872C184.05 154.172 186.431 154.199 188.796 154.338C192.312 154.545 195.829 154.72 199.343 154.954C204.069 155.269 208.791 155.646 213.517 155.963C216.895 156.19 220.278 156.34 223.656 156.563C229.532 156.947 235.407 157.35 241.28 157.769C241.85 157.809 242.414 157.946 243.188 158.069C242.259 160.249 241.569 162.244 240.574 164.069C239.977 165.198 239.597 166.429 239.452 167.699C239.24 169.235 238.922 170.755 238.677 172.286C238.467 173.333 238.331 174.393 238.269 175.459C238.254 176.308 238.589 177.159 238.623 178.015C238.723 180.569 238.744 183.127 238.831 185.681C238.862 186.152 238.968 186.615 239.143 187.054C239.414 187.788 239.843 188.385 240.743 188.372C241.683 188.358 241.669 187.59 241.917 186.972C242.298 186.018 242.478 184.892 244.032 184.133C243.756 185.27 243.612 186.017 243.392 186.74C242.713 188.969 243.013 189.694 245.106 190.521C246.556 191.094 248.011 191.666 249.5 192.121C251.6 192.766 252.063 192.506 252.979 190.559C253.402 189.317 254.211 188.244 255.288 187.496C256.798 188.44 257.195 189.881 257.402 191.479C257.502 192.235 257.636 193.36 258.121 193.612C259.082 194.112 259.21 192.712 259.627 192.461L263.77 192.161L268.744 194.574L269.609 193.2C270.619 193.052 271.619 192.837 272.6 192.554C273.84 191.996 275.199 191.756 276.555 191.854C276.848 191.882 277.143 191.851 277.423 191.762C277.703 191.673 277.962 191.528 278.185 191.336C278.643 190.804 279.213 190.38 279.854 190.095C280.496 189.809 281.192 189.669 281.894 189.685C282.327 189.659 282.748 189.526 283.116 189.296C283.485 189.067 283.79 188.748 284.004 188.37C284.218 187.993 284.334 187.567 284.341 187.133C284.349 186.699 284.247 186.27 284.046 185.885C282.653 183.749 282.678 182.89 284.341 180.799C284.935 180.052 285.221 179.41 284.241 178.755C284.448 178.541 284.639 178.314 284.814 178.074C285.558 176.863 285.339 176.082 284.052 175.499C283.563 175.278 283 175.221 282.505 175.01C281.982 174.788 281.498 174.47 280.93 174.157C281.23 173.529 281.404 173.09 281.647 172.698C282.221 171.767 283.185 170.927 283.333 169.956Z" stroke="#F5F5F5" stroke-width="2"/>
</g>
<g filter="url(#filter1_d)">
<path d="M400.45 134.875C399.505 130.021 398.454 125.188 397.299 120.375C396.88 118.628 396.383 116.692 394.75 115.667C393.024 114.565 391.02 113.975 388.972 113.967C387.018 113.967 385.063 113.819 383.111 113.688C382.706 113.682 382.318 113.528 382.02 113.254C381.555 112.677 380.958 112.22 380.279 111.921C379.6 111.623 378.86 111.491 378.12 111.538C377.508 110.727 377.146 109.72 376.52 109.513C374.553 108.804 372.851 107.506 371.646 105.796C371.356 105.513 371.05 105.246 370.73 104.996C370.02 104.272 369.33 103.532 368.636 102.789C368.033 102.063 367.393 101.37 366.718 100.711C361.926 96.6078 356.809 92.8992 351.418 89.6221C349.441 88.5581 347.215 88.0403 344.971 88.1221C343.149 88.1924 341.332 88.3752 339.532 88.6692C337.374 88.8692 335.232 89.0633 333.18 87.9693C331.91 87.2913 330.551 86.4972 329.011 87.3992C328.927 87.4492 328.751 87.3513 328.621 87.3133C326.811 86.7753 324.957 86.3493 323.203 85.6673C321.185 84.8833 319.264 83.8551 317.286 82.9671C316.201 82.4791 314.686 82.1172 314.061 82.9732C313.752 83.3602 313.359 83.6715 312.912 83.8828C312.464 84.0942 311.974 84.1999 311.479 84.1922C310.804 84.2212 310.145 84.4038 309.551 84.7261C308.958 85.0484 308.446 85.5021 308.054 86.0523C307.471 86.9523 304.263 88.4191 302.789 88.6651C302.978 87.1045 303.593 85.6261 304.565 84.3911C306.029 82.8221 305.632 81.6911 304.993 79.9341C304.251 77.9784 303.045 76.2321 301.48 74.8443C300.106 73.5633 298.566 72.0721 296.28 73.2671C296.035 73.3353 295.777 73.3403 295.53 73.2815C295.283 73.2227 295.055 73.1022 294.867 72.9312C293.716 71.3172 291.687 71.1851 290.261 70.0581C289.846 69.828 289.388 69.6861 288.916 69.6411C288.757 69.5761 288.586 69.5476 288.414 69.5576C288.243 69.5677 288.076 69.616 287.926 69.6992C287.775 69.7825 287.646 69.8984 287.546 70.0384C287.447 70.1783 287.38 70.3388 287.351 70.5081C286.91 72.2001 286.46 73.8901 286.063 75.5921C286.033 75.9306 286.09 76.2712 286.23 76.5811C286.425 77.1282 286.456 77.7201 286.321 78.2847C286.185 78.8493 285.889 79.3626 285.468 79.7622C285.01 80.1656 284.639 80.6582 284.378 81.2097C284.117 81.7613 283.971 82.3603 283.949 82.9702C283.945 83.1367 283.906 83.3002 283.834 83.4505C283.762 83.6007 283.66 83.7341 283.533 83.8421C282.911 84.2497 282.406 84.8123 282.068 85.4744C281.729 86.1365 281.568 86.8753 281.602 87.6182C281.411 88.6133 280.978 89.5459 280.34 90.3333C279.857 90.9872 279.33 91.607 278.762 92.1883C277.939 93.0102 277.461 94.1147 277.424 95.2771C277.469 95.8195 277.346 96.3628 277.072 96.833C276.798 97.3033 276.386 97.6779 275.892 97.9063C275.159 98.3779 274.604 99.0795 274.313 99.9011C273.413 101.633 272.531 103.536 270.113 103.742C269.592 103.892 269.119 104.174 268.739 104.561C267.08 105.85 265.435 107.155 263.802 108.477C263.511 108.772 263.243 109.091 263.002 109.428C264.636 109.994 265.79 111.128 267.489 110.996C267.887 110.985 268.277 111.102 268.603 111.331C269.646 112.063 270.594 112.936 271.668 113.614C272.233 113.992 272.687 114.513 272.983 115.126C273.278 115.738 273.404 116.418 273.348 117.095C273.373 117.963 273.383 118.831 273.387 119.695C273.456 120.636 273.443 121.581 273.349 122.519C273.027 124.381 272.561 126.219 272.137 128.06C272.083 128.322 271.968 128.567 271.801 128.776C271.284 129.368 270.419 129.849 270.256 130.513C269.983 131.623 271.367 131.421 271.891 131.959C271.938 132.007 271.982 132.059 271.973 132.049C272.069 132.731 272.269 133.393 272.566 134.014C273.697 135.614 274.966 137.123 276.156 138.684C276.339 138.97 276.615 139.184 276.937 139.291C277.259 139.398 277.608 139.392 277.926 139.272C278.896 138.977 279.885 138.75 280.887 138.593C281.86 138.461 282.624 139.102 282.469 139.949C282.244 141.177 282.18 142.549 280.532 142.963C279.939 143.124 279.407 143.457 279.002 143.919C278.598 144.382 278.339 144.954 278.259 145.563C277.968 146.519 277.5 147.41 276.878 148.191C276.6 148.455 276.413 148.801 276.344 149.179C276.275 149.556 276.329 149.946 276.496 150.291L278.473 150.762C277.744 153.174 279.865 153.7 281.194 154.843L280.059 156.423C280.959 157.9 281.84 159.253 282.619 160.661C282.797 160.978 283.04 161.254 283.332 161.471C283.624 161.688 283.958 161.841 284.313 161.92C285.753 162.466 287.163 163.086 288.538 163.778C287.111 164.7 286.026 165.371 284.976 166.094C284.449 166.393 283.991 166.799 283.631 167.286C282.683 168.915 281.804 170.586 280.982 172.286C280.276 173.741 280.716 174.707 282.27 175.307C283.007 175.592 283.77 175.8 284.76 176.119L283.365 178.369L284.156 179.645C283.815 179.928 283.49 180.23 283.183 180.55C282.462 181.401 282.111 184.185 282.817 184.96C283.735 185.967 284.317 186.873 283.475 188.188C283.422 188.309 283.4 188.442 283.411 188.573C283.422 188.705 283.465 188.832 283.538 188.942C284.389 189.758 284.083 190.642 283.824 191.566C283.711 191.884 283.721 192.233 283.851 192.544C284.313 193.244 284.07 193.766 283.709 194.398C282.846 196.026 282.479 197.871 282.653 199.705C282.699 201.077 283.28 202.376 284.272 203.324C285.028 204.028 285.516 204.974 285.651 205.998C285.786 207.022 285.56 208.061 285.012 208.937C284.092 210.38 284.495 211.695 285.044 213.048C286.957 212.719 288.853 212.942 289.835 210.999C289.945 210.78 290.427 210.749 290.735 210.631C291.187 210.5 291.626 210.33 292.048 210.122C294.709 208.522 297.267 206.722 300.037 205.349C301.533 204.744 303.142 204.471 304.754 204.549C306.154 204.535 306.564 205.334 306.339 206.761C306.246 207.347 306.164 207.935 306.064 208.611C306.749 208.895 307.304 209.122 307.856 209.356C309.262 209.95 310.525 210.323 311.904 209.013C312.175 208.813 312.484 208.672 312.813 208.599C313.141 208.527 313.482 208.523 313.812 208.59C314.142 208.657 314.454 208.792 314.728 208.987C315.002 209.182 315.232 209.433 315.404 209.722C316.357 211.219 317.793 212.346 319.473 212.917C320.43 213.247 321.312 213.789 322.259 214.158C322.925 214.491 323.652 214.684 324.395 214.723C325.107 214.692 325.817 214.824 326.47 215.109C327.124 215.393 327.704 215.823 328.166 216.365C329.067 217.188 329.754 218.217 330.166 219.365C330.739 221.122 332.421 222.115 333.73 221.42C334.177 221.192 334.67 221.069 335.172 221.061C335.674 221.053 336.171 221.161 336.625 221.374C337.714 221.751 338.834 222.036 339.917 222.428C341.408 223.046 342.771 223.934 343.939 225.048C343.718 226.292 343.024 227.403 342.003 228.148C340.565 229.2 339.315 230.407 339.461 232.394L337.278 232.75C336.92 233.9 336.623 235.009 336.226 236.08C336.052 236.485 335.997 236.932 336.066 237.367C336.135 237.803 336.325 238.21 336.615 238.542C337.655 239.868 338.655 241.225 339.755 242.68C339.717 243.472 338.939 244.529 340.176 245.28C341.276 245.946 342.332 246.703 343.464 247.313C343.729 247.485 344.027 247.6 344.338 247.653C344.65 247.706 344.969 247.695 345.276 247.621C345.583 247.547 345.871 247.411 346.124 247.222C346.377 247.032 346.589 246.794 346.747 246.52C347.238 245.881 347.812 245.309 348.454 244.82C349.175 244.375 349.763 243.744 350.156 242.993C350.549 242.243 350.733 241.4 350.689 240.554C350.713 238.799 350.899 237.05 351.248 235.329C351.955 231.806 353.034 228.368 354.464 225.071C354.656 224.571 354.987 223.978 354.864 223.53C354.101 220.662 354.464 217.73 354.241 214.839C354.041 212.88 354.206 210.901 354.728 209.002C355.38 207.005 355.515 204.875 355.122 202.811C354.849 201.792 354.815 200.724 355.024 199.689C355.232 198.655 355.676 197.682 356.322 196.848C356.903 196.202 357.345 195.443 357.62 194.619C357.895 193.795 357.998 192.924 357.922 192.058C358.922 192.775 359.622 193.253 360.299 193.771C361.899 195.001 361.935 195.034 363.299 193.613C366.085 190.736 368.486 187.512 370.445 184.019C371.829 181.531 373.275 179.077 374.636 176.577C376.078 174.172 378.349 172.376 381.022 171.529C382.325 171.009 383.467 170.156 384.334 169.053C386.268 166.735 388.321 164.519 390.485 162.414C393.375 159.689 396.147 156.909 397.365 153.024C398.538 149.284 399.545 145.492 400.597 141.714C401.086 139.455 401.036 137.112 400.45 134.875V134.875Z" stroke="#F5F5F5" stroke-width="2"/>
</g>
<g filter="url(#filter2_d)">
<path d="M285.56 207.537C285.445 207.01 285.366 206.475 285.324 205.937C285.321 205.532 285.222 205.134 285.035 204.774C284.849 204.415 284.579 204.105 284.249 203.87C283.555 203.369 283.022 202.676 282.716 201.877C282.409 201.078 282.343 200.207 282.524 199.37C282.89 198.009 283.333 196.67 283.849 195.359C284.017 194.819 284.291 194.098 284.075 193.697C283.914 193.369 283.824 193.011 283.812 192.646C283.8 192.281 283.865 191.917 284.003 191.579C284.291 190.462 283.788 189.395 282.823 189.364C281.056 189.306 279.157 188.901 277.684 190.488C277.267 191.001 276.674 191.342 276.02 191.443C274.389 191.455 272.777 191.803 271.286 192.465C271.022 192.619 270.715 192.681 270.412 192.639C270.11 192.598 269.83 192.456 269.618 192.236C269.27 191.958 268.898 191.713 268.506 191.503L267.64 193.722C266.766 193.584 265.929 193.271 265.18 192.801C264.43 192.331 263.783 191.714 263.278 190.988C261.611 192.919 259.568 191.504 258.032 191.929C257.532 190.625 256.922 189.365 256.209 188.164C255.087 186.593 254.109 186.657 253.03 188.21C252.421 189.104 251.893 190.051 251.454 191.039C251.054 191.927 250.554 192.326 249.564 191.966C248.164 191.457 246.727 191.043 245.334 190.516C243.086 189.666 243.053 189.516 243.688 187.24C243.918 186.466 244.045 185.665 244.068 184.858C244.057 184.637 243.993 184.421 243.881 184.229C243.769 184.038 243.613 183.876 243.425 183.758C243.201 183.721 242.972 183.737 242.756 183.807C242.54 183.876 242.345 183.997 242.185 184.158C241.666 184.861 241.2 185.601 240.791 186.373C240.509 186.839 240.232 187.309 239.748 188.122C239.532 187.617 239.364 187.091 239.248 186.554C239.088 183.791 238.802 181.021 238.887 178.264C238.941 176.491 238.228 174.764 238.92 172.923C239.377 171.37 239.674 169.775 239.805 168.161C239.94 167.03 240.264 165.93 240.765 164.907C241.9 162.707 242.743 160.351 243.765 157.918C243.316 157.79 242.861 157.69 242.4 157.618C239.767 157.418 237.132 157.25 234.5 157.065C229.775 156.732 225.052 156.382 220.326 156.065C216.881 155.835 213.431 155.665 209.986 155.438C205.056 155.115 200.128 154.766 195.199 154.429C190.608 154.115 186.016 153.813 181.425 153.48C179.452 153.36 177.58 152.57 176.116 151.242C174.961 150.218 173.482 149.556 172.34 148.521C171.028 147.331 169.102 146.503 168.904 144.464C168.597 141.299 167.069 138.549 166.128 135.604C165.683 134.083 164.664 132.795 163.285 132.014C162.911 132.748 162.571 133.364 162.279 134.003C162.119 134.583 161.887 135.142 161.59 135.665C161.262 136.053 161.043 136.521 160.955 137.022C160.866 137.522 160.911 138.037 161.085 138.514C161.461 139.684 161.411 140.949 160.944 142.086C160.605 142.874 160.377 143.705 160.266 144.556C160.066 146.005 159.932 146.23 158.566 146.278C155.926 146.372 153.285 146.466 150.644 146.512C146.032 146.591 141.42 146.612 136.808 146.699C134.574 146.739 132.341 146.842 130.108 146.947C129.512 147.016 128.921 147.118 128.337 147.255L129.493 149.317C129.147 149.777 128.924 150.318 128.845 150.889C128.766 151.459 128.834 152.04 129.042 152.577C129.111 152.906 129.118 153.245 129.062 153.577C129.087 156.483 129.102 159.39 129.152 162.295C129.213 162.694 129.31 163.087 129.441 163.469C129.657 164.307 129.814 165.16 129.91 166.02C129.989 167.35 129.931 168.688 129.931 170.159C130.877 170.207 131.537 170.266 132.197 170.269C134.437 170.28 136.678 170.248 138.918 170.288C139.514 170.337 140.102 170.453 140.673 170.632C141.415 170.899 142.18 171.1 142.958 171.232C143.904 171.29 144.677 171.375 145.074 172.409C145.471 173.443 145.642 174.351 144.745 175.209C143.676 176.231 143.845 177.385 144.47 178.558C144.884 179.336 145.289 180.119 145.733 180.88C147.446 183.816 146.171 186.765 144.033 189.559C143.181 190.589 142.486 191.74 141.97 192.974C141.652 194.068 140.949 195.009 139.989 195.623C139.213 196.095 138.531 196.723 137.508 197.511C138.158 198.119 138.88 198.645 139.658 199.076C140.667 199.451 140.985 200.176 140.658 200.97C139.927 202.722 140.591 204.162 141.414 205.587C142.296 207.224 142.587 209.114 142.238 210.94C141.968 211 141.695 211.045 141.42 211.074C140.807 211.103 140.043 211.049 139.944 211.8C139.889 212.224 140.309 212.74 140.587 213.169C140.842 213.571 141.154 213.933 141.512 214.246C142.056 214.756 142.485 215.376 142.772 216.064C143.058 216.753 143.196 217.494 143.175 218.239C143.265 219.588 143.434 220.933 143.602 222.275C143.842 224.186 144.102 224.414 146.044 224.421C149.574 224.433 153.104 224.421 156.634 224.421H161.678C161.622 224.944 161.678 225.221 161.57 225.321C160.057 226.649 160.47 228.33 160.67 229.981C160.779 230.852 160.908 231.724 160.946 232.6C160.942 233.008 161.064 233.407 161.296 233.742C161.528 234.077 161.858 234.332 162.241 234.471C163.6 235.084 164.901 235.837 166.286 236.378C166.699 236.509 167.071 236.743 167.369 237.058C167.666 237.373 167.879 237.758 167.986 238.178C168.387 239.468 168.874 240.731 169.443 241.957C169.64 242.382 169.746 242.843 169.755 243.311C169.763 243.779 169.674 244.244 169.493 244.676C167.86 249.329 166.754 254.155 164.885 258.734C164.84 258.942 164.824 259.156 164.84 259.368L166.627 261.282C166.472 261.535 166.286 261.768 166.075 261.976C164.45 263.176 164.458 264.638 165.324 266.266C165.514 266.625 165.68 266.999 165.835 267.375C166.857 269.739 167.291 272.316 167.099 274.884C166.912 277.109 166.751 279.339 166.672 281.57C166.61 283.322 166.83 283.519 168.539 283.845C169.339 283.997 170.132 284.158 170.939 284.276C173.277 284.619 175.614 284.967 177.959 285.25C178.429 285.26 178.894 285.153 179.312 284.938C180.172 284.566 181.001 284.121 182.012 283.622C182.545 284.306 183.242 284.844 184.038 285.187C184.835 285.529 185.705 285.665 186.568 285.582C186.791 285.614 187.002 285.701 187.184 285.833C187.365 285.966 187.512 286.142 187.61 286.344C188.039 287.477 188.383 288.64 188.639 289.824C189.001 291.469 189.281 293.134 189.552 294.797C189.663 295.447 189.705 296.107 189.675 296.766C189.652 297.681 189.814 298.591 190.152 299.442C190.49 300.293 190.997 301.066 191.642 301.716C192.238 302.29 193.005 302.654 193.827 302.755C194.649 302.855 195.481 302.685 196.198 302.272C197.11 301.845 198.023 301.422 198.863 301.031C202.409 303.439 201.648 302.625 204.753 302.453C204.847 301.907 204.935 301.321 205.053 300.74C205.42 298.891 205.137 296.74 207.453 295.8C207.747 295.68 207.896 295.147 208.066 294.784C208.437 293.984 208.79 293.177 209.125 292.363C209.575 291.295 210.377 290.413 211.398 289.863C212.731 289.083 213.985 288.163 215.263 287.293C216.709 286.302 218.153 285.307 219.578 284.286C220.018 283.981 220.414 283.616 220.755 283.203C221.584 282.217 222.349 281.179 223.046 280.095C224.126 278.553 225.001 276.877 225.646 275.108C225.912 273.87 226.493 272.722 227.335 271.775C227.878 271.276 228.283 270.645 228.512 269.944C228.743 268.742 229.303 267.627 230.13 266.725C230.956 265.822 232.018 265.167 233.195 264.832C235.132 264.173 235.227 263.898 234.739 261.848C234.435 260.956 234.316 260.011 234.388 259.071C234.888 256.5 235.928 254.227 238.637 253.171C239.022 253.021 239.3 252.522 239.555 252.137C239.999 251.539 240.373 250.892 240.67 250.208C241.186 248.802 242.295 248.526 243.57 248.449C244.647 248.384 245.728 248.336 246.798 248.209C247.643 248.109 248.434 247.649 249.317 248.309C249.569 248.497 250.301 248.146 250.759 247.928C251.5 247.464 252.271 247.05 253.067 246.687C256.243 245.669 259.649 245.614 262.856 246.529C263.263 246.689 263.701 246.752 264.137 246.715C264.573 246.677 264.993 246.539 265.367 246.312C266.784 245.385 268.194 244.446 269.634 243.554C269.993 243.364 270.288 243.071 270.48 242.712C270.672 242.354 270.753 241.947 270.713 241.542C270.656 240.74 270.701 239.933 270.846 239.142C271.194 237.487 271.24 237.498 269.798 236.532C269.58 236.386 269.371 236.226 269.12 236.045C269.567 234.963 270.353 234.056 271.36 233.458C271.877 233.182 272.267 232.717 272.448 232.159C272.629 231.602 272.586 230.996 272.329 230.469C271.933 229.547 271.438 228.671 270.852 227.856C270.621 227.613 270.466 227.308 270.406 226.978C270.346 226.648 270.384 226.308 270.515 225.999C270.759 225.366 270.955 224.716 271.103 224.054C271.239 223.49 271.518 222.971 271.911 222.546C272.305 222.12 272.801 221.802 273.352 221.622C273.8 221.471 274.258 221.353 274.723 221.269C276.077 220.934 276.278 220.722 276.242 219.321C276.181 218.721 276.073 218.127 275.919 217.544C275.832 217.086 275.519 216.438 275.705 216.202C276.526 215.183 275.758 214.29 275.599 213.44C276.386 212.093 277.878 212.62 278.945 212.02L279.324 209.714C279.727 209.919 280.112 210.157 280.475 210.427C280.914 210.927 281.5 211.277 282.148 211.426C282.797 211.576 283.476 211.518 284.09 211.261C284.662 210.843 285.104 210.271 285.364 209.612C285.624 208.953 285.692 208.233 285.56 207.537Z" stroke="#F5F5F5" stroke-width="2"/>
</g>
<g filter="url(#filter3_d)">
<path d="M341.857 247.397C340.957 246.816 340.041 246.251 339.067 245.638C339.738 243.891 338.985 242.866 337.748 241.744C335.371 239.587 335.248 237.666 336.874 234.937L338.969 234.637C339.107 234.326 339.279 234.13 339.258 233.957C339.035 232.157 340.091 231.013 341.383 230.111C342.769 229.143 343.164 227.665 343.888 226.23C343.421 225.808 343.023 225.457 342.633 225.095C340.783 223.376 338.448 222.669 336.116 221.937C334.491 221.427 332.889 220.868 331.445 222.097C330.503 221.605 329.789 220.767 329.451 219.76C328.624 217.59 327.02 215.689 324.745 215.386C322.497 214.946 320.309 214.238 318.229 213.278C316.837 212.743 315.644 211.791 314.813 210.552C313.323 208.461 311.523 208.181 309.49 209.758C309.226 210.016 308.887 210.183 308.521 210.234C308.156 210.286 307.784 210.219 307.459 210.044C306.919 209.786 306.369 209.544 305.759 209.274C305.873 208.662 305.968 208.139 306.068 207.617C306.172 207.182 306.12 206.725 305.92 206.324C305.721 205.924 305.388 205.606 304.978 205.427C304.177 204.932 303.241 204.701 302.301 204.765C300.056 204.84 297.891 205.616 296.11 206.985C295.416 207.526 294.675 208.005 293.896 208.415C292.513 209.369 291.028 210.166 289.468 210.791C288.435 211.021 287.527 211.631 286.924 212.5C286.059 213.743 284.946 213.544 284.102 212.222C283.831 211.798 283.411 211.239 282.996 211.18C281.937 210.973 280.973 210.43 280.247 209.631C279.672 209.233 279.054 208.903 278.404 208.646L277.464 211.607C277.176 211.678 276.845 211.737 276.529 211.841C274.642 212.462 274.444 212.941 274.417 214.928C274.333 216.335 274.494 217.745 274.891 219.097C274.942 219.536 274.905 219.981 274.784 220.406C273.706 220.716 272.647 221.086 271.612 221.516C271.006 221.779 270.507 222.242 270.2 222.827C269.7 224.078 269.476 225.435 269.066 226.727C268.891 227.099 268.864 227.523 268.988 227.914C269.112 228.306 269.378 228.636 269.735 228.84C269.952 229.004 270.141 229.202 270.296 229.426C271.529 230.999 271.434 232.107 269.956 233.432C269.603 233.748 269.201 234.015 268.881 234.36C267.125 236.253 267.23 236.903 269.428 238.077C269.428 239.47 269.501 240.677 269.391 241.863C269.3 242.375 269.015 242.832 268.597 243.14C267.22 244.123 265.797 245.054 264.333 245.896C263.856 246.109 263.315 246.128 262.824 245.951C259.278 244.696 255.391 244.809 251.924 246.269C250.61 246.769 249.524 248.16 247.88 247.136C247.805 247.089 247.631 247.221 247.5 247.236C246.583 247.424 245.653 247.549 244.719 247.61C242.019 247.628 239.786 248.333 238.801 251.18C238.491 251.91 237.939 252.513 237.239 252.886C235.842 253.706 234.671 254.86 233.833 256.246C233.357 257.068 233.061 257.983 232.966 258.929C232.871 259.874 232.979 260.829 233.282 261.73C233.982 263.53 233.789 263.735 232.054 264.43C230.881 264.878 229.831 265.596 228.988 266.526C228.144 267.456 227.532 268.571 227.2 269.782C227.009 270.408 226.692 270.989 226.27 271.489C225.28 272.623 224.237 273.669 224.37 275.373C224.325 275.846 224.141 276.296 223.841 276.665C222.631 278.54 221.369 280.381 220.163 282.259C219.608 283.107 218.84 283.793 217.935 284.249C216.277 285.081 214.768 286.181 213.469 287.505C213.979 287.825 214.529 288.077 215.104 288.256C216.713 288.456 218.333 288.596 219.953 288.684C220.561 288.729 221.171 288.645 221.744 288.437C222.346 288.213 222.989 288.121 223.63 288.169C224.271 288.217 224.894 288.402 225.456 288.713C226.365 289.125 227.456 289.786 228.289 289.589C230.395 289.089 232.167 290.089 233.607 290.989C234.924 291.741 236.435 292.081 237.947 291.967C239.033 291.984 240.12 291.946 241.204 291.978C241.668 291.992 242.304 291.956 242.561 292.228C243.789 293.528 245.467 294.628 245.253 296.744C245.082 298.43 246.402 299.924 245.774 301.666C245.686 301.91 246.095 302.373 246.335 302.687C246.746 303.225 247.264 303.687 247.635 304.249C248.047 304.743 248.337 305.326 248.483 305.953C248.63 306.579 248.627 307.231 248.477 307.856C248.01 309.466 248.547 310.031 250.285 310.128C251.164 310.177 252.042 310.241 252.921 310.283C254.056 310.338 254.84 310.674 254.938 312.033C254.993 312.789 255.161 313.8 256.243 313.819C256.746 313.85 257.235 314.004 257.667 314.265C258.098 314.526 258.46 314.887 258.722 315.319C259.15 315.748 259.623 316.129 260.133 316.456C260.5 316.141 260.899 315.971 260.973 315.708C261.621 313.43 263.46 312.529 265.373 311.561C267.08 310.745 268.667 309.7 270.09 308.454C271.295 307.27 272.67 306.273 274.168 305.493C275.448 304.872 276.755 304.307 278.057 303.732C279.515 302.978 281.195 302.771 282.792 303.149C283.504 303.27 284.226 303.316 284.947 303.287C285.215 302.551 285.261 301.687 285.647 301.487C287.417 300.576 288.909 299.052 291.137 299.087C293.714 299.129 293.867 298.855 293.383 296.237C293.364 296.137 293.478 296.009 293.622 295.689C294.359 295.599 295.106 295.613 295.839 295.731C296.247 295.89 296.684 295.962 297.122 295.942C297.559 295.922 297.988 295.81 298.38 295.615C298.729 295.402 299.132 295.296 299.541 295.309C299.95 295.322 300.345 295.454 300.68 295.689C301.138 295.979 301.653 296.166 302.19 296.237C302.727 296.308 303.274 296.261 303.791 296.1C304.521 295.975 305.263 295.933 306.002 295.977C309.319 296.055 312.636 296.13 315.95 296.277C316.421 296.36 316.905 296.264 317.309 296.008C317.712 295.752 318.006 295.355 318.132 294.894C318.404 294.352 318.574 293.765 318.632 293.162C318.559 292.622 318.661 292.072 318.923 291.595C319.185 291.117 319.593 290.735 320.088 290.506C321.096 289.984 322.132 289.521 323.193 289.118C324.254 288.703 325.355 288.397 326.424 288.001C326.804 287.893 327.158 287.709 327.464 287.46C327.771 287.212 328.024 286.904 328.209 286.554C328.393 286.205 328.505 285.822 328.538 285.429C328.57 285.036 328.523 284.64 328.398 284.265C328.086 282.869 328.306 281.407 329.014 280.165C329.742 278.712 330.481 277.265 331.245 275.829C331.387 275.528 331.62 275.279 331.911 275.117C332.494 274.835 333.001 274.418 333.389 273.9C333.777 273.382 334.036 272.778 334.142 272.139C334.226 271.709 334.422 271.309 334.709 270.978C334.996 270.648 335.364 270.398 335.778 270.254C336.419 269.928 336.943 269.412 337.278 268.775C337.793 267.908 338.021 266.875 338.542 266.008C338.92 265.308 339.48 264.723 340.163 264.315C341 263.944 341.705 263.329 342.187 262.551C342.668 261.773 342.904 260.867 342.863 259.953C342.92 257.858 342.942 255.753 343.205 253.676C343.499 252.119 343.893 250.582 344.385 249.076C343.537 248.504 342.7 247.942 341.857 247.397Z" stroke="#F5F5F5" stroke-width="2"/>
</g>
<g filter="url(#filter4_d)">
<path d="M260.238 317.241C259.477 315.99 259.156 314.218 257.258 313.997C256.279 313.883 255.897 313.389 255.829 312.397C255.735 311.011 255.392 310.671 254.017 310.419C252.957 310.224 251.87 310.182 250.796 310.059C250.296 310.001 249.796 309.911 249.103 309.806C249.511 308.878 249.63 307.848 249.444 306.852C249.257 305.855 248.775 304.938 248.059 304.22C247.23 303.22 246.309 302.282 247.029 300.791C247.129 300.578 246.829 300.181 246.74 299.861C246.552 299.364 246.427 298.845 246.368 298.317C246.325 297.301 246.078 296.304 245.641 295.385C245.205 294.467 244.589 293.645 243.829 292.969C243.538 292.641 243.177 292.383 242.773 292.213C242.368 292.043 241.931 291.965 241.493 291.986C239.934 292.036 238.371 292.035 236.812 291.979C236.218 291.952 235.634 291.813 235.09 291.57C233.616 290.913 232.19 290.157 230.717 289.492C230.352 289.312 229.936 289.262 229.539 289.352C228.174 289.821 227.034 289.275 225.839 288.758C224.331 288.106 222.796 287.597 221.16 288.509C220.723 288.68 220.246 288.72 219.787 288.625C218.714 288.491 217.652 288.27 216.587 288.099C214.948 287.837 213.33 287.651 212.199 289.299C212.028 289.512 211.8 289.673 211.542 289.762C210.538 290.185 209.641 290.826 208.915 291.637C208.189 292.449 207.652 293.412 207.342 294.456C207.227 294.987 206.989 295.484 206.645 295.905C206.301 296.326 205.863 296.66 205.365 296.879C204.982 297.016 204.681 297.685 204.549 298.167C204.139 299.667 203.828 301.187 203.449 302.839C201.128 303.489 200.815 303.932 200.694 306.248C200.665 307.531 200.519 308.809 200.257 310.066C199.657 312.566 198.934 315.029 198.19 317.487C198.102 317.688 198.058 317.906 198.06 318.125C198.062 318.345 198.111 318.561 198.203 318.761C198.296 318.96 198.429 319.137 198.595 319.281C198.761 319.425 198.956 319.532 199.166 319.595C200.277 320.117 201.516 320.303 202.731 320.129C202.963 320.079 203.203 320.076 203.436 320.12C203.67 320.164 203.892 320.254 204.09 320.386C204.287 320.517 204.457 320.687 204.588 320.885C204.719 321.083 204.809 321.306 204.852 321.539C205.152 322.439 205.507 323.319 205.916 324.175C206.638 325.652 206.755 327.353 206.24 328.914C206.028 329.627 205.972 330.377 206.075 331.114C206.375 333.443 206.275 333.914 204.264 335.021C202.087 336.221 199.864 337.342 197.594 338.358C196.646 338.712 195.853 339.389 195.355 340.27C195.057 340.78 194.6 341.18 194.055 341.408C192.833 341.983 191.726 342.777 190.79 343.75C189.359 345.032 188.542 346.976 186.58 347.683C186.466 347.724 186.38 347.866 186.301 347.973C184.086 350.85 181.313 353.273 179.607 356.573C178.94 357.989 177.952 359.231 176.721 360.199C174.749 361.578 173.608 363.529 172.261 365.362C171.945 365.717 171.727 366.148 171.631 366.614C171.607 366.969 171.991 367.667 172.194 367.668C173.694 367.668 175.242 368.275 176.642 367.042C177.925 365.912 178.748 366.011 180.049 367.133C181.126 368.062 182.091 369.133 183.217 369.992C184.908 371.285 186.191 372.717 185.875 375.039C185.861 375.139 185.997 375.268 186.175 375.571C186.977 375.719 187.801 375.694 188.592 375.498C189.319 375.134 189.757 374.191 190.468 373.321C191.168 374.479 191.78 375.436 192.327 376.43C192.535 376.816 192.822 377.154 193.171 377.42C193.519 377.686 193.921 377.875 194.348 377.974C195.641 378.348 196.909 378.798 198.148 379.323C198.582 379.509 198.932 379.849 199.131 380.276C199.481 381.156 200.034 381.941 200.745 382.566C201.455 383.192 202.304 383.641 203.221 383.876C204.773 384.408 206.221 385.376 206.515 387.176C206.66 387.868 206.955 388.521 207.379 389.087C207.803 389.653 208.347 390.118 208.971 390.451C209.4 390.742 209.862 390.985 210.408 391.308C209.822 392.25 209.475 393.337 208.731 393.879C208.249 394.189 207.864 394.629 207.623 395.148C207.381 395.668 207.292 396.246 207.367 396.814C207.434 397.626 207.432 398.442 207.362 399.254C207.199 400.012 207.333 400.802 207.737 401.464C208.14 402.125 208.782 402.607 209.53 402.808C211.201 402.105 212.716 401.076 213.984 399.78C215.253 398.484 216.25 396.949 216.917 395.263C217.581 393.783 218.041 392.212 218.693 390.727C219.798 388.236 221.623 386.132 223.933 384.687C225.828 383.634 227.623 382.409 229.294 381.028C233.62 377.094 236.964 372.2 239.059 366.741C239.645 365.303 240.333 363.908 241.119 362.569C241.568 361.736 242.181 360.993 242.649 360.169C244.449 356.997 246.655 354.187 249.949 352.464C251.344 351.745 252.404 350.511 252.905 349.024C253.235 348.136 253.518 347.23 253.856 346.345C254.106 345.647 254.402 344.967 254.742 344.308C255.828 342.314 256.401 340.335 254.959 338.244C254.779 337.884 254.681 337.488 254.672 337.085C254.077 333.061 254.172 328.965 254.955 324.973C255.076 324.325 255.379 323.725 255.83 323.244C256.306 322.914 256.637 322.414 256.756 321.847C256.875 321.28 256.773 320.689 256.47 320.195C256.312 319.578 256.27 318.936 256.346 318.303C257.304 318.444 258.268 318.535 259.235 318.574C260.03 318.566 260.66 317.935 260.238 317.241Z" stroke="#F5F5F5" stroke-width="2"/>
</g>
<defs>
<filter id="filter0_d" x="0.992157" y="0.96788" width="295.739" height="203.56" filterUnits="userSpaceOnUse" color-interpolation-filters="sRGB">
<feFlood flood-opacity="0" result="BackgroundImageFix"/>
<feColorMatrix in="SourceAlpha" type="matrix" values="0 0 0 0 0 0 0 0 0 0 0 0 0 0 0 0 0 0 127 0"/>
<feOffset dx="2" dy="2"/>
<feGaussianBlur stdDeviation="2"/>
<feColorMatrix type="matrix" values="0 0 0 0 0.192157 0 0 0 0 0.211765 0 0 0 0 0.223529 0 0 0 0.2 0"/>
<feBlend mode="normal" in2="BackgroundImageFix" result="effect1_dropShadow"/>
<feBlend mode="normal" in="SourceGraphic" in2="effect1_dropShadow" result="shape"/>
</filter>
<filter id="filter1_d" x="259.411" y="66.5557" width="148.519" height="188.131" filterUnits="userSpaceOnUse" color-interpolation-filters="sRGB">
<feFlood flood-opacity="0" result="BackgroundImageFix"/>
<feColorMatrix in="SourceAlpha" type="matrix" values="0 0 0 0 0 0 0 0 0 0 0 0 0 0 0 0 0 0 127 0"/>
<feOffset dx="2" dy="2"/>
<feGaussianBlur stdDeviation="2"/>
<feColorMatrix type="matrix" values="0 0 0 0 0.192157 0 0 0 0 0.211765 0 0 0 0 0.223529 0 0 0 0.2 0"/>
<feBlend mode="normal" in2="BackgroundImageFix" result="effect1_dropShadow"/>
<feBlend mode="normal" in="SourceGraphic" in2="effect1_dropShadow" result="shape"/>
</filter>
<filter id="filter2_d" x="124.814" y="128.629" width="167.811" height="181.154" filterUnits="userSpaceOnUse" color-interpolation-filters="sRGB">
<feFlood flood-opacity="0" result="BackgroundImageFix"/>
<feColorMatrix in="SourceAlpha" type="matrix" values="0 0 0 0 0 0 0 0 0 0 0 0 0 0 0 0 0 0 127 0"/>
<feOffset dx="2" dy="2"/>
<feGaussianBlur stdDeviation="2"/>
<feColorMatrix type="matrix" values="0 0 0 0 0.192157 0 0 0 0 0.211765 0 0 0 0 0.223529 0 0 0 0.2 0"/>
<feBlend mode="normal" in2="BackgroundImageFix" result="effect1_dropShadow"/>
<feBlend mode="normal" in="SourceGraphic" in2="effect1_dropShadow" result="shape"/>
</filter>
<filter id="filter3_d" x="209.884" y="201.754" width="141.686" height="121.945" filterUnits="userSpaceOnUse" color-interpolation-filters="sRGB">
<feFlood flood-opacity="0" result="BackgroundImageFix"/>
<feColorMatrix in="SourceAlpha" type="matrix" values="0 0 0 0 0 0 0 0 0 0 0 0 0 0 0 0 0 0 127 0"/>
<feOffset dx="2" dy="2"/>
<feGaussianBlur stdDeviation="2"/>
<feColorMatrix type="matrix" values="0 0 0 0 0.192157 0 0 0 0 0.211765 0 0 0 0 0.223529 0 0 0 0.2 0"/>
<feBlend mode="normal" in2="BackgroundImageFix" result="effect1_dropShadow"/>
<feBlend mode="normal" in="SourceGraphic" in2="effect1_dropShadow" result="shape"/>
</filter>
<filter id="filter4_d" x="168.63" y="284.928" width="98.7433" height="124.935" filterUnits="userSpaceOnUse" color-interpolation-filters="sRGB">
<feFlood flood-opacity="0" result="BackgroundImageFix"/>
<feColorMatrix in="SourceAlpha" type="matrix" values="0 0 0 0 0 0 0 0 0 0 0 0 0 0 0 0 0 0 127 0"/>
<feOffset dx="2" dy="2"/>
<feGaussianBlur stdDeviation="2"/>
<feColorMatrix type="matrix" values="0 0 0 0 0.192157 0 0 0 0 0.211765 0 0 0 0 0.223529 0 0 0 0.2 0"/>
<feBlend mode="normal" in2="BackgroundImageFix" result="effect1_dropShadow"/>
<feBlend mode="normal" in="SourceGraphic" in2="effect1_dropShadow" result="shape"/>
</filter>
</defs>
</svg>
